<?xml version="1.0" encoding="utf-8"?>
<!-- Generator: Adobe Illustrator 25.0.1, SVG Export Plug-In . SVG Version: 6.00 Build 0)  -->
<svg version="1.1" id="Layer_1" xmlns="http://www.w3.org/2000/svg" xmlns:xlink="http://www.w3.org/1999/xlink" x="0px" y="0px"
	 viewBox="0 0 1231.2 210" style="enable-background:new 0 0 1231.2 210;" xml:space="preserve">
<style type="text/css">
	.st0{fill:#00B4A2;}
	.st1{fill:#FB9F35;}
	.st2{fill:#3F3F3F;}
	.st3{fill:none;}
	.st4{fill:#23A698;}
	.st5{fill:#FBA744;}
</style>
<g>
	<g>
		<path class="st0" d="M333.6,44.9l-25.5,33.9h-2.9l-24.8-34v56.7h-14.7v-78h16.9L307,57l24.4-33.5h16.8v78h-14.7
			C333.6,101.5,333.6,44.9,333.6,44.9z"/>
		<path class="st0" d="M405.8,46.5h13v54.9H406l-0.7-8c-3.1,6.5-11.7,9.6-17.8,9.7c-16.3,0.1-28.3-9.9-28.3-29.2
			c0-18.9,12.6-28.9,28.6-28.8c7.4,0,14.4,3.5,17.5,8.9L405.8,46.5z M372.8,73.9c0,10.5,7.2,16.7,16.3,16.7c21.4,0,21.4-33.3,0-33.3
			C380,57.3,372.8,63.4,372.8,73.9z"/>
		<path class="st0" d="M443.5,23.5v45L462,46.4h16.3v0.8l-22.4,25.1l25.5,28.1v1H465l-21.5-24.8v24.8h-13.6V23.5H443.5z"/>
		<path class="st0" d="M531.2,46.5h13v54.9h-12.8l-0.7-8c-3.1,6.5-11.7,9.6-17.8,9.7c-16.3,0.1-28.3-9.9-28.3-29.2
			c0-18.9,12.6-28.9,28.6-28.8c7.4,0,14.4,3.5,17.5,8.9L531.2,46.5z M498.2,73.9c0,10.5,7.2,16.7,16.3,16.7c21.4,0,21.4-33.3,0-33.3
			C505.5,57.3,498.2,63.4,498.2,73.9z"/>
		<path class="st0" d="M596.2,101.4V72.7c0-8.4-4.6-14.7-13.3-14.7c-8.4,0-14,7-14,15.4v28.1h-13.5v-55h12.1l0.9,7.5
			c5.6-5.5,11.1-8.2,18-8.2c12.9,0,23.3,9.7,23.3,27v28.9h-13.5V101.4z"/>
		<path class="st1" d="M633.2,46.5v28.7c0,8.4,4.6,14.7,13.3,14.7c8.4,0,14-7,14-15.4v-28H674v55h-12.1L661,94
			c-5.7,5.6-10.9,8.2-18.6,8.2c-13.1,0-22.7-9.9-22.7-27V46.5H633.2z"/>
		<path class="st1" d="M722.6,101.4V72c0-7.2-3.8-13.8-11.3-13.8c-7.4,0-11.7,6.6-11.7,13.8v29.4H686v-55h12.6l1,6.7
			c2.9-5.6,9.2-7.6,14.5-7.6c6.6,0,13.1,2.7,16.3,10.2c4.9-7.8,11.2-10,18.4-10c15.6,0,23.3,9.6,23.3,26.1v29.6h-13.6V71.8
			c0-7.2-3-13.4-10.4-13.4s-11.9,6.4-11.9,13.6v29.4H722.6z"/>
		<path class="st1" d="M799.4,23.5V54c3.2-5.7,12.3-8.8,18-8.8c16,0,28,9.8,28,28.8c0,18-12.2,28.8-28.3,28.8
			c-6.7,0-13.5-2.2-17.7-8.8l-0.9,7.6h-12.7V23.5C785.9,23.5,799.4,23.5,799.4,23.5z M800.3,73.9c0,9.9,7.3,16.2,15.9,16.2
			c8.7,0,15.6-6.6,15.6-16.2c0-9.9-6.9-16-15.6-16C807.7,57.8,800.3,64.3,800.3,73.9z"/>
		<path class="st1" d="M867.1,78.8c0.9,6.8,6.8,11.7,16.4,11.7c5,0,11.6-1.9,14.7-5.1l8.7,8.6c-5.8,6-15.3,8.9-23.6,8.9
			c-18.9,0-30.2-11.7-30.2-29.3c0-16.7,11.4-28.8,29.2-28.8c18.4,0,29.9,11.4,27.8,34H867.1L867.1,78.8z M896.9,67.5
			c-0.9-7.1-6.5-10.7-14.3-10.7c-7.3,0-13.4,3.6-15.4,10.7H896.9z"/>
		<path class="st1" d="M933,46.5l1,6.3c4.2-6.8,9.9-7.8,15.5-7.8c5.7,0,11.1,2.2,14.2,5.2L957.6,62c-2.8-2.3-5.3-3.6-9.8-3.6
			c-7.1,0-13.7,3.8-13.7,13.9v29h-13.6V46.5H933z"/>
		<path class="st2" d="M984.5,94.4c0,10.6-16,10.6-16,0S984.5,83.8,984.5,94.4z"/>
		<path class="st2" d="M1041.2,94.4c-6.3,6.2-13,8.7-21.2,8.7c-15.9,0-29.2-9.6-29.2-29.1s13.3-29.1,29.2-29.1
			c7.8,0,13.8,2.2,19.8,8.1l-8.6,9c-3.2-2.9-7.2-4.3-11-4.3c-9.1,0-15.8,6.7-15.8,16.3c0,10.5,7.1,16,15.6,16c4.3,0,8.7-1.2,12-4.6
			L1041.2,94.4z"/>
		<path class="st2" d="M1103,74c0,15.8-10.8,28.6-28.6,28.6c-17.8,0-28.6-12.8-28.6-28.6c0-15.7,10.9-28.6,28.4-28.6
			S1103,58.3,1103,74z M1059.4,74c0,8.4,5,16.2,14.9,16.2s14.9-7.8,14.9-16.2c0-8.2-5.8-16.3-14.9-16.3
			C1064.5,57.7,1059.4,65.8,1059.4,74z"/>
		<path class="st2" d="M1148.9,101.4V72c0-7.2-3.8-13.8-11.2-13.8c-7.3,0-11.7,6.6-11.7,13.8v29.4h-13.6v-55h12.6l1,6.7
			c2.9-5.6,9.2-7.6,14.5-7.6c6.6,0,13.2,2.7,16.3,10.2c4.9-7.8,11.2-10,18.4-10c15.6,0,23.3,9.6,23.3,26.1v29.6h-13.6V71.8
			c0-7.2-3-13.4-10.4-13.4s-11.9,6.4-11.9,13.6v29.4H1148.9z"/>
	</g>
</g>
<g>
	<path class="st3" d="M171.6,81.6c-4.1-18.8-20.9-32.9-40.9-32.9c-23.2,0-41.9,18.8-41.9,41.9s18.8,41.9,41.9,41.9
		c19.5,0,35.9-13.4,40.5-31.4C172.3,94.8,172.4,88.1,171.6,81.6z"/>
	<path class="st4" d="M171.2,101.2c0.9-3.4,1.4-6.9,1.4-10.5c0-3.1-0.4-6.1-1-9C172.4,88.1,172.3,94.8,171.2,101.2z"/>
</g>
<g>
	<g>
		<g>
			<path class="st5" d="M130.6,7.2c-43.1,0-81.5,40.1-81.3,83.5c0.1,19.9,7.4,38.7,19.4,54.5c1.1,1.5,2.3,3,3.5,4.4
				c2.6,3.2,7.4,3.5,10.3,0.5l0,0c2.5-2.5,2.7-6.5,0.5-9.3c-1.2-1.4-2.3-2.9-3.4-4.3c-9.9-13-15.6-28.5-15.7-44.9
				C63.7,55.8,95,22.7,130.6,22.7c38.1,0,66.9,34.2,66.9,72.3c0,18.4-11.1,35.7-22.2,49.2c-12,14.6-25.7,27.9-40.2,40.1
				c-2.6,2.2-6.4,2.2-8.9,0c-8.5-7.2-16.9-14.8-24.8-22.9c-2.7-2.7-7.1-2.7-9.8,0l-0.2,0.2c-2.7,2.7-2.7,7-0.1,9.8
				c11,11.5,22.8,22.3,34.8,32.5c2.6,2.2,6.3,2.2,8.9,0c17.9-15,34.8-31.4,49.7-49.4c13.5-16.3,27.4-37.4,27.4-59.7
				C212.1,48.7,176.7,7.2,130.6,7.2z"/>
		</g>
	</g>
</g>
<path class="st0" d="M130.7,43.3c-26.2,0-47.4,21.2-47.4,47.4c0,10.3,3.3,19.8,8.8,27.6l-34.6,34.6L41,136.4c-3.1-3.1-8-3.1-11.1,0
	s-3.1,8,0,11.1L46.4,164l-8.4,8.4l-11.8-11.8c-3.1-3.1-8-3.1-11.1,0s-3.1,8,0,11.1L27,183.3l-5.3,5.3c-3.1,3.1-3.1,8,0,11.1
	s8,3.1,11.1,0l70.5-70.5c7.7,5.5,17.2,8.7,27.4,8.7c26.2,0,47.4-21.2,47.4-47.4S156.8,43.3,130.7,43.3z M163.6,90.6
	c0,18.2-14.7,32.9-32.9,32.9c-5.8,0-11.2-1.5-15.9-4.1c-5.4-3-9.8-7.4-12.8-12.7c-2.7-4.8-4.2-10.2-4.2-16.1
	c0-18.2,14.7-32.9,32.9-32.9C148.8,57.8,163.6,72.5,163.6,90.6z"/>
<path class="st2" d="M148,98l-14.2-13c-1.6-1.4-4-1.4-5.6,0L114,98c-1.7,1.5-4.3,1.4-5.8-0.3l0,0c-1.5-1.7-1.4-4.3,0.3-5.8
	l19.8-18.1c1.6-1.4,4-1.4,5.6,0l19.8,18.1c1.7,1.5,1.8,4.1,0.3,5.8l0,0C152.3,99.4,149.7,99.5,148,98z"/>
<path class="st2" d="M128.7,98.5h-3.8c-0.4,0-0.8-0.4-0.8-0.8v-4.5c0-0.4,0.4-0.8,0.8-0.8h3.8c0.4,0,0.8,0.4,0.8,0.8v4.5
	C129.5,98.2,129.1,98.5,128.7,98.5z"/>
<path class="st2" d="M136.7,98.5H133c-0.4,0-0.8-0.4-0.8-0.8v-4.5c0-0.4,0.4-0.8,0.8-0.8h3.8c0.4,0,0.8,0.4,0.8,0.8v4.5
	C137.5,98.2,137.2,98.5,136.7,98.5z"/>
<path class="st2" d="M136.7,106.7H133c-0.4,0-0.8-0.4-0.8-0.8v-4.5c0-0.4,0.4-0.8,0.8-0.8h3.8c0.4,0,0.8,0.4,0.8,0.8v4.5
	C137.5,106.3,137.2,106.7,136.7,106.7z"/>
<path class="st2" d="M128.7,106.7h-3.8c-0.4,0-0.8-0.4-0.8-0.8v-4.5c0-0.4,0.4-0.8,0.8-0.8h3.8c0.4,0,0.8,0.4,0.8,0.8v4.5
	C129.5,106.3,129.1,106.7,128.7,106.7z"/>
<g>
	<path d="M302.5,184.2h-4.4L274,161.6v22.5h-3.5v-45.7h3.5v20.9l22.2-20.9h4.2v0.3l-23,21.6l25.1,23.6V184.2z"/>
	<path d="M311,138.4v19.5c2.4-4.2,6.3-6.4,11.6-6.5c4.4,0,7.8,1.3,10.1,3.9c2.3,2.6,3.5,6,3.5,10.4v18.5h-3.1v-18.5
		c0-3.5-0.9-6.2-2.6-8.2c-1.7-2-4.3-3-7.8-3c-3.4,0-6.1,1.1-8.3,3.4c-2.2,2.3-3.2,5.1-3.2,8.5v17.7H308v-45.8H311z"/>
	<path d="M372,184.2v-5.8c-2.3,4.1-6.1,6.3-11.5,6.3c-4.4,0-7.9-1.3-10.6-3.8c-2.7-2.5-4-6-4-10.4v-18.6h3.2v18.6
		c0,3.6,1,6.4,3.1,8.3c2,1.9,4.9,2.9,8.4,2.8c3.3,0,6-1.2,8.1-3.4s3.2-5,3.2-8.4v-18h3.2v32.4H372z"/>
	<path d="M420.1,184.2h-3.5l-5.2-14.1l-3.9-12.6l-4.1,12.6l-5.2,14.1h-3.5l-11.5-32.3h3.5l9.7,28.6l9.9-28.6h2.3l9.8,28.6l9.7-28.6
		h3.5L420.1,184.2z"/>
	<path d="M468.9,151.9v32.3h-3.2v-6.9c-3.1,4.9-7.5,7.4-13.2,7.4c-4.6,0-8.5-1.6-11.6-4.7s-4.8-7.1-4.8-12c0-4.8,1.6-8.8,4.7-11.9
		c3.2-3.1,7-4.6,11.7-4.6c2.7,0,5.3,0.6,7.7,1.9c2.4,1.3,4.2,3.1,5.5,5.6v-7.1H468.9z M443.1,158.3c-2.5,2.5-3.8,5.7-3.8,9.7
		c0,4,1.3,7.2,3.8,9.7c2.5,2.5,5.7,3.8,9.4,3.8c2.5,0,4.7-0.5,6.6-1.5s3.4-2.3,4.4-3.9c1-1.6,1.7-3.3,2.2-5.2c0.5-1.9,0.5-3.8,0-5.8
		c-0.5-1.9-1.2-3.7-2.2-5.3c-1-1.6-2.5-2.9-4.4-3.9c-1.9-1-4.1-1.5-6.6-1.5C448.8,154.6,445.6,155.8,443.1,158.3z"/>
	<path d="M482.6,138.4V159c1.3-2.5,3.1-4.4,5.5-5.7c2.4-1.3,5-1.9,7.9-1.9c4.7,0,8.5,1.5,11.6,4.4c3.1,3,4.6,7,4.6,12.2
		c0,5.2-1.5,9.3-4.6,12.2c-3.1,3-6.9,4.4-11.6,4.4c-2.8,0-5.4-0.7-7.8-2c-2.4-1.4-4.3-3.2-5.6-5.6v7.1h-3.1v-45.8H482.6z
		 M486.5,158.2c-2.5,2.5-3.8,5.8-3.8,9.7c0,4,1.2,7.3,3.7,9.8c2.5,2.5,5.6,3.8,9.5,3.8c3.8,0,6.9-1.2,9.4-3.5
		c2.5-2.4,3.8-5.7,3.8-10c0-4.4-1.2-7.7-3.7-10.1c-2.5-2.4-5.6-3.5-9.5-3.5C492.1,154.5,489,155.7,486.5,158.2z"/>
	<path d="M573.6,184.2l-5-11.2h-27.3l-5,11.2h-3.8l20.5-45.8h3.9l20.5,45.8H573.6z M567.2,169.7l-12.3-27.8l-12.3,27.8H567.2z"/>
	<path d="M584.4,199.8v-47.9h3.1v7.6c1.3-2.5,3.2-4.5,5.7-5.9s5.2-2.2,8.3-2.2c4.6,0.2,8.3,1.7,11.3,4.7c2.9,2.9,4.4,6.9,4.4,11.9
		c0,5.2-1.5,9.3-4.6,12.3c-3.1,3-7,4.4-11.8,4.4c-2.8,0-5.4-0.7-7.8-2.1c-2.4-1.4-4.2-3.4-5.6-6v23.1H584.4z M610.3,178.2
		c2.5-2.4,3.7-5.7,3.7-10.1c0-4.4-1.2-7.7-3.7-10c-2.5-2.3-5.6-3.5-9.5-3.5c-3.7,0-6.9,1.3-9.3,3.8c-2.5,2.5-3.7,5.8-3.7,9.8
		c0,3.9,1.3,7.2,3.8,9.7s5.6,3.9,9.3,3.9C604.7,181.7,607.8,180.5,610.3,178.2z"/>
	<path d="M628.9,138.4V166l15.2-14.1h4.2v0.1L632,167.1l18.2,16.9v0.2h-4.1l-17.3-15.8v15.8h-3.1v-45.8H628.9z"/>
	<path d="M656.4,180.1c-3.1-3.1-4.7-7.1-4.7-12.1c0-4.8,1.6-8.8,4.8-11.9c3.2-3.2,7.1-4.7,11.6-4.7c5,0,9,1.5,12.1,4.6
		c3.1,3.1,4.4,7.6,3.8,13.5H655c0.3,3.7,1.7,6.6,4.2,8.8c2.5,2.2,5.5,3.3,8.9,3.3c2.2,0,4.4-0.4,6.6-1.3c2.2-0.9,3.9-2.1,5-3.6
		l2.3,1.8c-1.5,2-3.6,3.5-6.1,4.6c-2.5,1.1-5.1,1.6-7.8,1.6C663.4,184.7,659.5,183.2,656.4,180.1z M681.2,166.7c0-3.9-1.2-7-3.6-9.2
		c-2.4-2.2-5.5-3.3-9.5-3.3c-3.4,0-6.4,1.1-8.9,3.3c-2.5,2.2-3.9,5.3-4.2,9.1H681.2z"/>
	<path d="M692.5,180.4c0.5-0.5,1.1-0.7,1.8-0.7c0.6,0,1.2,0.2,1.8,0.7c0.5,0.5,0.8,1.1,0.8,1.9c0,0.3-0.1,0.7-0.2,1.1l-2.6,6.7h-2.8
		l2-5.4c-1-0.4-1.6-1.2-1.6-2.4C691.7,181.5,692,180.8,692.5,180.4z"/>
	<path d="M757.4,184.2H753l-24.1-22.6v22.5h-3.5v-45.7h3.5v20.9l22.2-20.9h4.2v0.3l-23,21.6l25.1,23.6V184.2z"/>
	<path d="M763.4,180.2c-3.1-3-4.7-7-4.7-12s1.6-9.1,4.7-12.2c3.1-3.1,7-4.6,11.7-4.6s8.6,1.5,11.7,4.6s4.7,7.1,4.7,12.2
		s-1.6,9-4.7,12s-7,4.5-11.7,4.5S766.6,183.2,763.4,180.2z M784.6,177.9c2.5-2.4,3.8-5.7,3.8-9.7c0-4.1-1.3-7.4-3.8-10
		c-2.5-2.5-5.7-3.8-9.4-3.8c-3.7,0-6.9,1.3-9.4,3.8c-2.5,2.5-3.8,5.9-3.8,10c0,4.1,1.3,7.3,3.8,9.7c2.5,2.4,5.7,3.7,9.5,3.7
		C778.9,181.6,782.1,180.4,784.6,177.9z"/>
	<path d="M821.3,157.8c-2.6-2.3-5.9-3.4-10.1-3.4c-2.7,0-5.1,0.4-7,1.5c-1.9,1-2.8,2.5-2.8,4.5c0,0.7,0.1,1.3,0.4,1.9
		c0.3,0.5,0.7,1,1.3,1.4s1.1,0.7,1.6,1c0.5,0.2,1.2,0.5,2.2,0.7c1,0.2,1.7,0.4,2.1,0.5c0.4,0.1,1.1,0.2,2.2,0.4
		c4.4,0.7,7.5,1.5,9,2.4c3,1.5,4.4,3.9,4.3,7.1c0,2.2-0.8,4-2.3,5.5c-1.5,1.4-3.1,2.4-5,2.8c-1.9,0.5-3.8,0.7-6,0.7
		c-3,0-5.7-0.6-8.3-1.7c-2.5-1.1-4.5-2.7-5.8-4.8l2.4-2.1c1.3,1.8,3,3.2,5.1,4.1s4.4,1.4,6.7,1.4c1.6,0,3-0.1,4.4-0.4
		c1.4-0.3,2.6-0.9,3.8-1.9c1.2-1,1.8-2.3,1.9-3.8c0-0.9-0.2-1.7-0.6-2.4s-0.9-1.2-1.5-1.6s-1.4-0.8-2.5-1.1c-1.1-0.3-2-0.6-2.8-0.7
		c-0.7-0.2-1.8-0.3-3.2-0.6c-1.6-0.3-2.9-0.5-3.8-0.7c-0.9-0.2-2-0.5-3.3-0.9s-2.2-0.9-2.9-1.5c-0.7-0.6-1.3-1.3-1.8-2.3
		c-0.5-0.9-0.8-2-0.8-3.3c0-3,1.2-5.2,3.7-6.8s5.5-2.3,9.1-2.3c5,0,9,1.4,12,4.3L821.3,157.8z"/>
	<path d="M835.8,138.4v19.5c2.4-4.2,6.3-6.4,11.6-6.5c4.4,0,7.8,1.3,10.1,3.9c2.3,2.6,3.5,6,3.5,10.4v18.5h-3.1v-18.5
		c0-3.5-0.9-6.2-2.6-8.2s-4.3-3-7.8-3c-3.4,0-6.1,1.1-8.3,3.4c-2.2,2.3-3.2,5.1-3.2,8.5v17.7h-3.2v-45.8H835.8z"/>
	<path d="M871.1,139.5c0.5-0.5,1.1-0.7,1.8-0.7s1.2,0.2,1.8,0.7c0.5,0.5,0.8,1.1,0.8,1.9s-0.3,1.4-0.8,1.9c-0.5,0.5-1.1,0.7-1.8,0.7
		s-1.2-0.2-1.8-0.7c-0.5-0.5-0.8-1.1-0.8-1.9S870.5,140,871.1,139.5z M871.2,151.8v32.4h3.2v-32.4H871.2z"/>
	<path d="M906.3,157.8c-2.6-2.3-5.9-3.4-10.1-3.4c-2.7,0-5.1,0.4-7,1.5c-1.9,1-2.8,2.5-2.8,4.5c0,0.7,0.1,1.3,0.4,1.9
		c0.3,0.5,0.7,1,1.3,1.4s1.1,0.7,1.6,1c0.5,0.2,1.2,0.5,2.2,0.7c1,0.2,1.7,0.4,2.1,0.5c0.4,0.1,1.1,0.2,2.2,0.4
		c4.4,0.7,7.5,1.5,9,2.4c3,1.5,4.4,3.9,4.3,7.1c0,2.2-0.8,4-2.3,5.5c-1.5,1.4-3.1,2.4-5,2.8c-1.9,0.5-3.8,0.7-6,0.7
		c-3,0-5.7-0.6-8.3-1.7c-2.5-1.1-4.5-2.7-5.8-4.8l2.4-2.1c1.3,1.8,3,3.2,5.1,4.1s4.4,1.4,6.7,1.4c1.6,0,3-0.1,4.4-0.4
		c1.4-0.3,2.6-0.9,3.8-1.9c1.2-1,1.8-2.3,1.9-3.8c0-0.9-0.2-1.7-0.6-2.4s-0.9-1.2-1.5-1.6s-1.4-0.8-2.5-1.1c-1.1-0.3-2-0.6-2.8-0.7
		c-0.7-0.2-1.8-0.3-3.2-0.6c-1.6-0.3-2.9-0.5-3.8-0.7c-0.9-0.2-2-0.5-3.3-0.9s-2.2-0.9-2.9-1.5c-0.7-0.6-1.3-1.3-1.8-2.3
		c-0.5-0.9-0.8-2-0.8-3.3c0-3,1.2-5.2,3.7-6.8s5.5-2.3,9.1-2.3c5,0,9,1.4,12,4.3L906.3,157.8z"/>
	<path d="M920.8,138.4v19.5c2.4-4.2,6.3-6.4,11.6-6.5c4.4,0,7.8,1.3,10.1,3.9c2.3,2.6,3.5,6,3.5,10.4v18.5h-3.1v-18.5
		c0-3.5-0.9-6.2-2.6-8.2s-4.3-3-7.8-3c-3.4,0-6.1,1.1-8.3,3.4c-2.2,2.3-3.2,5.1-3.2,8.5v17.7h-3.2v-45.8H920.8z"/>
	<path d="M1007.3,184.2v-20.8h-29.2v20.8h-3.5v-45.8h3.5v21.8h29.2v-21.8h3.5v45.8H1007.3z"/>
	<path d="M1047.9,184.2v-5.8c-2.3,4.1-6.1,6.3-11.5,6.3c-4.4,0-7.9-1.3-10.6-3.8c-2.7-2.5-4-6-4-10.4v-18.6h3.2v18.6
		c0,3.6,1,6.4,3.1,8.3c2,1.9,4.9,2.9,8.4,2.8c3.3,0,6-1.2,8.1-3.4s3.2-5,3.2-8.4v-18h3.2v32.4H1047.9z"/>
	<path d="M1109.5,184.2v-19.3c0-3.1-1-5.6-2.9-7.6c-1.9-2-4.4-3-7.5-3s-5.5,1-7.5,3s-2.9,4.6-2.9,7.7v19.2h-3.2V165
		c0-3.1-1-5.7-2.9-7.7c-1.9-2-4.4-3-7.5-3s-5.5,1-7.5,3c-1.9,2-2.9,4.6-2.9,7.7v19.2h-3.2v-32.3h3l0.1,5.4c2.1-4,5.6-6,10.5-6
		c2.7,0,5.2,0.7,7.4,2c2.2,1.3,3.7,3.3,4.6,6c1-2.5,2.5-4.5,4.7-5.9c2.2-1.4,4.6-2.1,7.2-2.1c4,0,7.2,1.3,9.7,3.8s3.8,5.8,3.8,9.8
		v19.3H1109.5z"/>
	<path d="M1153.6,151.9v32.3h-3.2v-6.9c-3.1,4.9-7.5,7.4-13.2,7.4c-4.6,0-8.5-1.6-11.6-4.7c-3.2-3.1-4.8-7.1-4.8-12
		c0-4.8,1.6-8.8,4.7-11.9c3.2-3.1,7-4.6,11.7-4.6c2.7,0,5.3,0.6,7.7,1.9c2.4,1.3,4.2,3.1,5.5,5.6v-7.1H1153.6z M1127.7,158.3
		c-2.5,2.5-3.8,5.7-3.8,9.7c0,4,1.3,7.2,3.8,9.7c2.5,2.5,5.7,3.8,9.4,3.8c2.5,0,4.7-0.5,6.6-1.5c1.9-1,3.4-2.3,4.4-3.9
		c1-1.6,1.7-3.3,2.2-5.2c0.5-1.9,0.5-3.8,0-5.8c-0.5-1.9-1.2-3.7-2.2-5.3c-1-1.6-2.5-2.9-4.4-3.9c-1.9-1-4.1-1.5-6.6-1.5
		C1133.4,154.6,1130.3,155.8,1127.7,158.3z"/>
	<path d="M1167.2,151.9l0.1,5.8c1-2,2.4-3.6,4.4-4.6c2-1,4.1-1.5,6.3-1.5c2.4-0.1,4.8,0.5,6.9,1.9l-1.4,2.6c-1.6-1-3.4-1.5-5.5-1.5
		c-3,0-5.5,1.1-7.6,3.2s-3.1,4.6-3.1,7.6v18.8h-3.2v-32.3H1167.2z"/>
	<path d="M1190.4,139.5c0.5-0.5,1.1-0.7,1.8-0.7s1.2,0.2,1.8,0.7c0.5,0.5,0.8,1.1,0.8,1.9s-0.3,1.4-0.8,1.9
		c-0.5,0.5-1.1,0.7-1.8,0.7s-1.2-0.2-1.8-0.7c-0.5-0.5-0.8-1.1-0.8-1.9S1189.9,140,1190.4,139.5z M1190.5,151.8v32.4h3.2v-32.4
		H1190.5z"/>
</g>
</svg>
