<?xml version="1.0" encoding="utf-8"?>
<!-- Generator: Adobe Illustrator 25.0.1, SVG Export Plug-In . SVG Version: 6.00 Build 0)  -->
<svg version="1.1" id="Layer_1" xmlns="http://www.w3.org/2000/svg" xmlns:xlink="http://www.w3.org/1999/xlink" x="0px" y="0px"
	 viewBox="0 0 1231.2 210" style="enable-background:new 0 0 1231.2 210;" xml:space="preserve">
<style type="text/css">
	.st0{fill:#00B4A2;}
	.st1{fill:#FB9F35;}
	.st2{fill:#3F3F3F;}
	.st3{fill:none;}
	.st4{fill:#23A698;}
	.st5{fill:#FBA744;}
</style>
<g>
	<g>
		<path class="st0" d="M333.6,44.9l-25.5,33.9h-2.9l-24.8-34v56.7h-14.7v-78h16.9L307,57l24.4-33.5h16.8v78h-14.7
			C333.6,101.5,333.6,44.9,333.6,44.9z"/>
		<path class="st0" d="M405.8,46.5h13v54.9H406l-0.7-8c-3.1,6.5-11.7,9.6-17.8,9.7c-16.3,0.1-28.3-9.9-28.3-29.2
			c0-18.9,12.6-28.9,28.6-28.8c7.4,0,14.4,3.5,17.5,8.9L405.8,46.5z M372.8,73.9c0,10.5,7.2,16.7,16.3,16.7c21.4,0,21.4-33.3,0-33.3
			C380,57.3,372.8,63.4,372.8,73.9z"/>
		<path class="st0" d="M443.5,23.5v45L462,46.4h16.3v0.8l-22.4,25.1l25.5,28.1v1H465l-21.5-24.8v24.8h-13.6V23.5H443.5z"/>
		<path class="st0" d="M531.2,46.5h13v54.9h-12.8l-0.7-8c-3.1,6.5-11.7,9.6-17.8,9.7c-16.3,0.1-28.3-9.9-28.3-29.2
			c0-18.9,12.6-28.9,28.6-28.8c7.4,0,14.4,3.5,17.5,8.9L531.2,46.5z M498.2,73.9c0,10.5,7.2,16.7,16.3,16.7c21.4,0,21.4-33.3,0-33.3
			C505.5,57.3,498.2,63.4,498.2,73.9z"/>
		<path class="st0" d="M596.2,101.4V72.7c0-8.4-4.6-14.7-13.3-14.7c-8.4,0-14,7-14,15.4v28.1h-13.5v-55h12.1l0.9,7.5
			c5.6-5.5,11.1-8.2,18-8.2c12.9,0,23.3,9.7,23.3,27v28.9h-13.5V101.4z"/>
		<path class="st1" d="M633.2,46.5v28.7c0,8.4,4.6,14.7,13.3,14.7c8.4,0,14-7,14-15.4v-28H674v55h-12.1L661,94
			c-5.7,5.6-10.9,8.2-18.6,8.2c-13.1,0-22.7-9.9-22.7-27V46.5H633.2z"/>
		<path class="st1" d="M722.6,101.4V72c0-7.2-3.8-13.8-11.3-13.8c-7.4,0-11.7,6.6-11.7,13.8v29.4H686v-55h12.6l1,6.7
			c2.9-5.6,9.2-7.6,14.5-7.6c6.6,0,13.1,2.7,16.3,10.2c4.9-7.8,11.2-10,18.4-10c15.6,0,23.3,9.6,23.3,26.1v29.6h-13.6V71.8
			c0-7.2-3-13.4-10.4-13.4s-11.9,6.4-11.9,13.6v29.4H722.6z"/>
		<path class="st1" d="M799.4,23.5V54c3.2-5.7,12.3-8.8,18-8.8c16,0,28,9.8,28,28.8c0,18-12.2,28.8-28.3,28.8
			c-6.7,0-13.5-2.2-17.7-8.8l-0.9,7.6h-12.7V23.5C785.9,23.5,799.4,23.5,799.4,23.5z M800.3,73.9c0,9.9,7.3,16.2,15.9,16.2
			c8.7,0,15.6-6.6,15.6-16.2c0-9.9-6.9-16-15.6-16C807.7,57.8,800.3,64.3,800.3,73.9z"/>
		<path class="st1" d="M867.1,78.8c0.9,6.8,6.8,11.7,16.4,11.7c5,0,11.6-1.9,14.7-5.1l8.7,8.6c-5.8,6-15.3,8.9-23.6,8.9
			c-18.9,0-30.2-11.7-30.2-29.3c0-16.7,11.4-28.8,29.2-28.8c18.4,0,29.9,11.4,27.8,34H867.1L867.1,78.8z M896.9,67.5
			c-0.9-7.1-6.5-10.7-14.3-10.7c-7.3,0-13.4,3.6-15.4,10.7H896.9z"/>
		<path class="st1" d="M933,46.5l1,6.3c4.2-6.8,9.9-7.8,15.5-7.8c5.7,0,11.1,2.2,14.2,5.2L957.6,62c-2.8-2.3-5.3-3.6-9.8-3.6
			c-7.1,0-13.7,3.8-13.7,13.9v29h-13.6V46.5H933z"/>
		<path class="st2" d="M984.5,94.4c0,10.6-16,10.6-16,0S984.5,83.8,984.5,94.4z"/>
		<path class="st2" d="M1041.2,94.4c-6.3,6.2-13,8.7-21.2,8.7c-15.9,0-29.2-9.6-29.2-29.1s13.3-29.1,29.2-29.1
			c7.8,0,13.8,2.2,19.8,8.1l-8.6,9c-3.2-2.9-7.2-4.3-11-4.3c-9.1,0-15.8,6.7-15.8,16.3c0,10.5,7.1,16,15.6,16c4.3,0,8.7-1.2,12-4.6
			L1041.2,94.4z"/>
		<path class="st2" d="M1103,74c0,15.8-10.8,28.6-28.6,28.6c-17.8,0-28.6-12.8-28.6-28.6c0-15.7,10.9-28.6,28.4-28.6
			S1103,58.3,1103,74z M1059.4,74c0,8.4,5,16.2,14.9,16.2s14.9-7.8,14.9-16.2c0-8.2-5.8-16.3-14.9-16.3
			C1064.5,57.7,1059.4,65.8,1059.4,74z"/>
		<path class="st2" d="M1148.9,101.4V72c0-7.2-3.8-13.8-11.2-13.8c-7.3,0-11.7,6.6-11.7,13.8v29.4h-13.6v-55h12.6l1,6.7
			c2.9-5.6,9.2-7.6,14.5-7.6c6.6,0,13.2,2.7,16.3,10.2c4.9-7.8,11.2-10,18.4-10c15.6,0,23.3,9.6,23.3,26.1v29.6h-13.6V71.8
			c0-7.2-3-13.4-10.4-13.4s-11.9,6.4-11.9,13.6v29.4H1148.9z"/>
	</g>
</g>
<g>
	<path d="M288.5,166.6l-18.4-28.2v-0.1h4.2l16,24.8l16-24.8h4.2v0.1L292,166.6v18.9h-3.6v-18.9H288.5z"/>
	<path d="M314.3,168.9c0-10.6,7.5-17.3,16.9-17.3c9.4,0,16.9,6.7,16.9,17.3s-7.5,17.1-16.9,17.1C321.8,186,314.3,179.5,314.3,168.9z
		 M344.9,168.9c0-8.6-6.1-14.2-13.7-14.2c-7.5,0-13.7,5.6-13.7,14.2s6.1,13.8,13.7,13.8C338.8,182.7,344.9,177.5,344.9,168.9z"/>
	<path d="M389.7,185.4v-6c-2.6,4.6-7.2,6.5-11.9,6.5c-8.9,0-15-5.5-15-14.7V152h3.3v19.1c0,7.5,4.7,11.6,11.9,11.5
		c6.9-0.1,11.7-5.3,11.7-12.1V152h3.3v33.4H389.7z"/>
	<path d="M411.8,152.2l0.1,5.9c2.1-4.5,6.8-6.3,11.1-6.3c2.5-0.1,4.9,0.6,7.1,2l-1.5,2.7c-1.8-1.1-3.7-1.5-5.7-1.5
		c-6.2,0.1-11,5.1-11,11.1v19.4h-3.3v-33.3L411.8,152.2L411.8,152.2z"/>
	<path d="M514,161.9c-0.1,12.4-8,24.3-23.8,24.3s-23.8-12-23.8-24.5c0-12.7,7.9-24.3,23.8-24.3S514,149.2,514,161.9z M470,161.9
		c0.1,10.6,6.8,21,20.2,21c13.5,0,20.3-10.4,20.3-21c0-10.9-6.7-21-20.3-21S469.9,150.7,470,161.9z"/>
	<path d="M563.4,185.4h-3.6l-5.4-14.6l-4-12.9l-4.2,13l-5.4,14.5h-3.6l-11.9-33.3h3.6l10,29.5l10.2-29.5h2.4l10.1,29.5l10-29.5h3.6
		L563.4,185.4z"/>
	<path d="M590.9,152.2v5.9c2.6-4.6,7.2-6.5,11.9-6.5c8.9,0,15,5.5,15,14.7v19.2h-3.3v-19.1c0-7.5-4.7-11.6-11.9-11.5
		c-6.9,0.1-11.7,5.3-11.7,12.1v18.5h-3.3v-33.3L590.9,152.2L590.9,152.2z"/>
	<path d="M663.4,169.1v16.3h-3.6v-47.2c6.9,0,13.8,0,20.7,0c20.5,0,20.5,30.9,0,30.9H663.4z M663.4,141.6v24.2h17.1
		c15.7,0,15.7-24.2,0-24.2H663.4z"/>
	<path d="M712,152.2l0.1,5.9c2.1-4.5,6.8-6.3,11.1-6.3c2.5-0.1,4.9,0.6,7.1,2l-1.5,2.7c-1.8-1.1-3.7-1.5-5.7-1.5
		c-6.2,0.1-11,5.1-11,11.1v19.4h-3.3v-33.3L712,152.2L712,152.2z"/>
	<path d="M740.8,168.9c0-10.6,7.5-17.3,16.9-17.3s16.9,6.7,16.9,17.3s-7.5,17.1-16.9,17.1S740.8,179.5,740.8,168.9z M771.4,168.9
		c0-8.6-6.1-14.2-13.7-14.2s-13.7,5.6-13.7,14.2s6.1,13.8,13.7,13.8S771.4,177.5,771.4,168.9z"/>
	<path d="M789.4,199.3v-47.2h3.2v7.9c2.6-5.1,8-8.4,14.4-8.4c9,0.3,16.2,6.4,16.2,17.1c0,11.2-7.5,17.3-16.9,17.3
		c-5.7,0-10.9-2.8-13.8-8.3v21.6L789.4,199.3L789.4,199.3z M819.9,168.8c0-9.4-6.1-14-13.6-14c-7.8,0-13.5,5.9-13.5,14
		s5.9,14,13.5,14C813.8,182.9,819.9,178.2,819.9,168.8z"/>
	<path d="M836.5,168.8c0-10,7.5-17.2,16.9-17.2s17.7,5.7,16.4,18.7h-30c0.7,7.8,6.7,12.3,13.5,12.3c4.4,0,9.5-1.8,12-5.1l2.4,1.9
		c-3.2,4.2-9,6.4-14.4,6.4C844,185.9,836.5,179.4,836.5,168.8z M866.9,167.5c-0.1-8.2-5.5-12.8-13.5-12.8c-6.9,0-12.8,4.7-13.5,12.8
		H866.9z"/>
	<path d="M888.6,152.2l0.1,5.9c2.1-4.5,6.8-6.3,11.1-6.3c2.5-0.1,4.9,0.6,7.1,2l-1.5,2.7c-1.8-1.1-3.7-1.5-5.7-1.5
		c-6.2,0.1-11,5.1-11,11.1v19.4h-3.3v-33.3L888.6,152.2L888.6,152.2z"/>
	<path d="M928.7,142.1v10H940v2.8h-11.3v20.3c0,4.5,0.9,7.7,6.1,7.7c1.6,0,3.4-0.5,5.1-1.3l1.1,2.7c-2.1,1-4.2,1.7-6.3,1.7
		c-7.1,0-9.4-4.2-9.4-10.7V155h-7.1v-2.8h7.1v-9.7L928.7,142.1z"/>
	<path d="M983.9,152.2l-20.3,47.2h-3.5l6.1-14.4l-13.3-32.9h3.6l7.8,19.7l3.9,9.6l3.8-9.7l8.4-19.6L983.9,152.2L983.9,152.2z"/>
	<path d="M1054.2,147.4c-3.4-5.5-9-6.3-14.3-6.4c-5.5,0-14.3,2-14.3,9.6c0,6,6.5,7.4,14.4,8.9c9.1,1.8,18.5,3.4,18.5,13.5
		c-0.1,10.6-10.8,13.2-18.7,13.2c-7.3,0-15.7-3-19.3-10.2l3.2-1.6c2.9,5.7,10.3,8.6,16.1,8.6c5.8,0,15-1.6,15-10
		c0.1-7.1-7.8-8.6-15.5-10.1c-8.6-1.7-17.5-3.4-17.5-12.1c-0.2-10,10.2-13.1,17.9-13.1c6.7,0,12.6,1.1,17.3,8L1054.2,147.4z"/>
	<path d="M1072.5,168.9c0-10.6,7.5-17.3,16.9-17.3s16.9,6.7,16.9,17.3s-7.5,17.1-16.9,17.1C1080.1,185.9,1072.5,179.5,1072.5,168.9z
		 M1103.1,168.9c0-8.6-6.1-14.2-13.7-14.2c-7.5,0-13.7,5.6-13.7,14.2s6.1,13.8,13.7,13.8C1097,182.7,1103.1,177.5,1103.1,168.9z"/>
	<path d="M1147.9,185.4v-6c-2.6,4.6-7.2,6.5-11.9,6.5c-8.9,0-15-5.5-15-14.7V152h3.3v19.1c0,7.5,4.7,11.6,11.9,11.5
		c6.9-0.1,11.7-5.3,11.7-12.1V152h3.3v33.4H1147.9z"/>
	<path d="M1195.8,199.3v-21.6c-2.8,5.5-8.1,8.3-13.8,8.3c-9.4,0-16.9-6.1-16.9-17.3c0-10.7,7.1-16.8,16.2-17.1
		c6.5,0,11.8,3.3,14.4,8.4v-7.9h3.2v47.2L1195.8,199.3L1195.8,199.3z M1195.5,168.9c0-8.2-5.7-14-13.5-14c-7.5,0-13.6,4.6-13.6,14
		s6.1,14.1,13.6,14.1C1189.7,182.9,1195.5,177,1195.5,168.9z"/>
</g>
<g>
	<path class="st3" d="M171.6,81.6c-4.1-18.8-20.9-32.9-40.9-32.9c-23.2,0-41.9,18.8-41.9,41.9s18.8,41.9,41.9,41.9
		c19.5,0,35.9-13.4,40.5-31.4C172.3,94.8,172.4,88.1,171.6,81.6z"/>
	<path class="st4" d="M171.2,101.2c0.9-3.4,1.4-6.9,1.4-10.5c0-3.1-0.4-6.1-1-9C172.4,88.1,172.3,94.8,171.2,101.2z"/>
</g>
<g>
	<g>
		<g>
			<path class="st5" d="M130.6,7.2c-43.1,0-81.5,40.1-81.3,83.5c0.1,19.9,7.4,38.7,19.4,54.5c1.1,1.5,2.3,3,3.5,4.4
				c2.6,3.2,7.4,3.5,10.3,0.5l0,0c2.5-2.5,2.7-6.5,0.5-9.3c-1.2-1.4-2.3-2.9-3.4-4.3c-9.9-13-15.6-28.5-15.7-44.9
				C63.7,55.8,95,22.7,130.6,22.7c38.1,0,66.9,34.2,66.9,72.3c0,18.4-11.1,35.7-22.2,49.2c-12,14.6-25.7,27.9-40.2,40.1
				c-2.6,2.2-6.4,2.2-8.9,0c-8.5-7.2-16.9-14.8-24.8-22.9c-2.7-2.7-7.1-2.7-9.8,0l-0.2,0.2c-2.7,2.7-2.7,7-0.1,9.8
				c11,11.5,22.8,22.3,34.8,32.5c2.6,2.2,6.3,2.2,8.9,0c17.9-15,34.8-31.4,49.7-49.4c13.5-16.3,27.4-37.4,27.4-59.7
				C212.1,48.7,176.7,7.2,130.6,7.2z"/>
		</g>
	</g>
</g>
<path class="st0" d="M130.7,43.3c-26.2,0-47.4,21.2-47.4,47.4c0,10.3,3.3,19.8,8.8,27.6l-34.6,34.6l-16.5-16.5
	c-3.1-3.1-8-3.1-11.1,0s-3.1,8,0,11.1l16.5,16.5l-8.4,8.4l-11.8-11.8c-3.1-3.1-8-3.1-11.1,0c-3.1,3.1-3.1,8,0,11.1L27,183.3
	l-5.3,5.3c-3.1,3.1-3.1,8,0,11.1c3.1,3.1,8,3.1,11.1,0l70.5-70.5c7.7,5.5,17.2,8.7,27.4,8.7c26.2,0,47.4-21.2,47.4-47.4
	S156.8,43.3,130.7,43.3z M163.6,90.6c0,18.2-14.7,32.9-32.9,32.9c-5.8,0-11.2-1.5-15.9-4.1c-5.4-3-9.8-7.4-12.8-12.7
	c-2.7-4.8-4.2-10.2-4.2-16.1c0-18.2,14.7-32.9,32.9-32.9C148.8,57.8,163.6,72.5,163.6,90.6z"/>
<path class="st2" d="M148,98l-14.2-13c-1.6-1.4-4-1.4-5.6,0L114,98c-1.7,1.5-4.3,1.4-5.8-0.3l0,0c-1.5-1.7-1.4-4.3,0.3-5.8
	l19.8-18.1c1.6-1.4,4-1.4,5.6,0l19.8,18.1c1.7,1.5,1.8,4.1,0.3,5.8l0,0C152.3,99.4,149.7,99.5,148,98z"/>
<path class="st2" d="M128.7,98.5h-3.8c-0.4,0-0.8-0.4-0.8-0.8v-4.5c0-0.4,0.4-0.8,0.8-0.8h3.8c0.4,0,0.8,0.4,0.8,0.8v4.5
	C129.5,98.2,129.1,98.5,128.7,98.5z"/>
<path class="st2" d="M136.7,98.5H133c-0.4,0-0.8-0.4-0.8-0.8v-4.5c0-0.4,0.4-0.8,0.8-0.8h3.8c0.4,0,0.8,0.4,0.8,0.8v4.5
	C137.5,98.2,137.2,98.5,136.7,98.5z"/>
<path class="st2" d="M136.7,106.7H133c-0.4,0-0.8-0.4-0.8-0.8v-4.5c0-0.4,0.4-0.8,0.8-0.8h3.8c0.4,0,0.8,0.4,0.8,0.8v4.5
	C137.5,106.3,137.2,106.7,136.7,106.7z"/>
<path class="st2" d="M128.7,106.7h-3.8c-0.4,0-0.8-0.4-0.8-0.8v-4.5c0-0.4,0.4-0.8,0.8-0.8h3.8c0.4,0,0.8,0.4,0.8,0.8v4.5
	C129.5,106.3,129.1,106.7,128.7,106.7z"/>
</svg>
