<?xml version="1.0" encoding="utf-8"?>
<!-- Generator: Adobe Illustrator 25.0.1, SVG Export Plug-In . SVG Version: 6.00 Build 0)  -->
<svg version="1.1" id="Layer_1" xmlns="http://www.w3.org/2000/svg" xmlns:xlink="http://www.w3.org/1999/xlink" x="0px" y="0px"
	 viewBox="0 0 791.1 538" style="enable-background:new 0 0 791.1 538;" xml:space="preserve">
<style type="text/css">
	.st0{fill:#00B4A2;}
	.st1{fill:#FB9F35;}
	.st2{fill:#3F3F3F;}
	.st3{fill:#23A698;}
	.st4{fill:#FBA744;}
</style>
<g>
	<g>
		<path class="st0" d="M78.8,392.1l-20.4,27.1h-2.3L36.2,392v45.5H24.4V375H38l19.6,26.9L77.1,375h13.5v62.5H78.8V392.1z"/>
		<path class="st0" d="M136.7,393.4h10.4v44h-10.3l-0.5-6.4c-2.5,5.2-9.4,7.7-14.3,7.8c-13,0.1-22.7-7.9-22.7-23.4
			c0-15.2,10.1-23.1,22.9-23c5.9,0,11.5,2.8,14,7.1L136.7,393.4z M110.2,415.3c0,8.4,5.8,13.4,13,13.4c17.1,0,17.1-26.7,0-26.7
			C116,402,110.2,407,110.2,415.3z"/>
		<path class="st0" d="M166.9,375v36.1l14.8-17.7h13v0.6l-17.9,20.1l20.4,22.5v0.8h-13.1l-17.2-19.9v19.9H156V375H166.9z"/>
		<path class="st0" d="M237.2,393.4h10.4v44h-10.3l-0.5-6.4c-2.5,5.2-9.4,7.7-14.3,7.8c-13,0.1-22.7-7.9-22.7-23.4
			c0-15.2,10.1-23.1,22.9-23c5.9,0,11.5,2.8,14,7.1L237.2,393.4z M210.8,415.3c0,8.4,5.8,13.4,13,13.4c17.1,0,17.1-26.7,0-26.7
			C216.6,402,210.8,407,210.8,415.3z"/>
		<path class="st0" d="M289.3,437.4v-23c0-6.7-3.7-11.8-10.6-11.8c-6.7,0-11.3,5.6-11.3,12.3v22.5h-10.8v-44.1h9.7l0.7,6
			c4.5-4.4,8.9-6.6,14.5-6.6c10.4,0,18.7,7.8,18.7,21.6v23.1H289.3z"/>
		<path class="st1" d="M318.9,393.4v23c0,6.7,3.7,11.8,10.6,11.8c6.7,0,11.3-5.6,11.3-12.3v-22.5h10.8v44.1h-9.7l-0.7-6
			c-4.6,4.5-8.8,6.6-14.9,6.6c-10.5,0-18.2-7.9-18.2-21.6v-23.1H318.9z"/>
		<path class="st1" d="M390.5,437.4v-23.6c0-5.8-3-11.1-9-11.1c-5.9,0-9.4,5.3-9.4,11.1v23.6h-10.9v-44.1h10.1l0.8,5.4
			c2.3-4.5,7.4-6.1,11.6-6.1c5.3,0,10.5,2.1,13,8.2c3.9-6.3,9-8,14.7-8c12.5,0,18.7,7.7,18.7,20.9v23.8h-10.9v-23.8
			c0-5.8-2.4-10.7-8.3-10.7c-5.9,0-9.6,5.1-9.6,10.9v23.6H390.5z"/>
		<path class="st1" d="M452.1,375v24.4c2.6-4.6,9.8-7.1,14.5-7.1c12.9,0,22.4,7.9,22.4,23c0,14.5-9.7,23-22.7,23
			c-5.4,0-10.8-1.8-14.2-7.1l-0.7,6.1h-10.2V375H452.1z M452.8,415.3c0,7.9,5.9,12.9,12.8,12.9c7,0,12.5-5.3,12.5-12.9
			c0-7.9-5.5-12.9-12.5-12.9C458.7,402.5,452.8,407.7,452.8,415.3z"/>
		<path class="st1" d="M506.3,419.3c0.7,5.4,5.4,9.4,13.1,9.4c4,0,9.3-1.5,11.8-4.1l7,6.9c-4.6,4.8-12.2,7.1-18.9,7.1
			c-15.2,0-24.2-9.4-24.2-23.5c0-13.4,9.1-23,23.4-23c14.7,0,23.9,9.1,22.2,27.2H506.3z M530.3,410.3c-0.7-5.7-5.2-8.6-11.4-8.6
			c-5.9,0-10.7,2.9-12.3,8.6H530.3z"/>
		<path class="st1" d="M559.2,393.4l0.8,5.1c3.4-5.4,7.9-6.2,12.4-6.2c4.6,0,8.9,1.8,11.3,4.2l-4.9,9.5c-2.2-1.9-4.3-2.9-7.9-2.9
			c-5.7,0-11,3-11,11.2v23.2h-10.9v-44H559.2z"/>
		<path class="st2" d="M600.4,431.8c0,8.5-12.9,8.5-12.9,0C587.6,423.3,600.4,423.3,600.4,431.8z"/>
		<path class="st2" d="M645.9,431.8c-5.1,5-10.4,7-17,7c-12.8,0-23.4-7.7-23.4-23.3c0-15.6,10.6-23.3,23.4-23.3
			c6.3,0,11.1,1.8,15.9,6.5l-6.9,7.2c-2.6-2.3-5.8-3.5-8.8-3.5c-7.3,0-12.7,5.4-12.7,13c0,8.4,5.7,12.9,12.5,12.9c3.5,0,7-1,9.6-3.7
			L645.9,431.8z"/>
		<path class="st2" d="M695.4,415.4c0,12.7-8.7,22.9-22.9,22.9s-22.9-10.3-22.9-22.9c0-12.6,8.8-22.9,22.8-22.9
			S695.4,402.8,695.4,415.4z M660.4,415.4c0,6.7,4,12.9,12,12.9s12-6.3,12-12.9c0-6.6-4.6-13-12-13
			C664.6,402.4,660.4,408.8,660.4,415.4z"/>
		<path class="st2" d="M732.2,437.4v-23.6c0-5.8-3-11.1-9-11.1c-5.9,0-9.4,5.3-9.4,11.1v23.6h-10.9v-44.1H713l0.8,5.4
			c2.3-4.5,7.4-6.1,11.6-6.1c5.3,0,10.5,2.1,13,8.2c3.9-6.3,9-8,14.7-8c12.5,0,18.7,7.7,18.7,20.9v23.8h-10.9v-23.8
			c0-5.8-2.4-10.7-8.3-10.7c-5.9,0-9.6,5.1-9.6,10.9v23.6H732.2z"/>
	</g>
</g>
<g>
	<path d="M54.4,504.7h-3.7l-19.9-18.6v18.6h-2.9V467h2.9v17.2L49.2,467h3.5v0.3l-19,17.8l20.7,19.5V504.7z"/>
	<path d="M60.3,467v16.1c2.2-3.8,5.9-5.3,9.6-5.3c7.4,0,11.2,4.8,11.2,11.8v15.3h-2.6v-15.3c0-5.5-2.6-9.2-8.6-9.2
		c-5.6,0-9.5,4.3-9.5,9.9v14.6h-2.6V467H60.3z"/>
	<path d="M108.9,504.7v-4.8c-2,3.7-5.8,5.2-9.5,5.2c-7.1,0-12-4.4-12-11.8V478H90v15.3c0,6,3.7,9.3,9.5,9.2c5.5-0.1,9.3-4.2,9.3-9.7
		V478h2.6v26.7H108.9z"/>
	<path d="M146,504.7H143l-4.3-11.7l-3.2-10.4l-3.3,10.4l-4.3,11.6h-2.9l-9.5-26.6h2.9l8,23.6l8.1-23.6h1.9l8.1,23.6l8-23.6h2.9
		L146,504.7z"/>
	<path d="M185.3,478.1c0,8.9,0,17.7,0,26.6h-2.6v-5.7c-2.6,4.2-6.6,6.1-10.9,6.1c-7.4,0-13.5-5.6-13.5-13.8
		c0-8.1,6.1-13.6,13.5-13.6c4.3,0,8.7,2,10.9,6.1v-5.8H185.3z M160.9,491.4c0,6.7,4.9,11.2,10.9,11.2c14.8,0,14.8-22.3,0-22.3
		C165.8,480.3,160.9,484.7,160.9,491.4z"/>
	<path d="M194.6,467v16.9c2.2-4.3,6.5-6.3,11.1-6.3c7.4,0,13.4,5,13.4,13.8c0,8.8-5.9,13.8-13.3,13.8c-4.5,0-8.9-2.3-11.1-6.3v5.9
		H192V467H194.6z M194.6,491.4c0,6.6,4.6,11.2,10.9,11.2c6,0,10.9-3.8,10.9-11.2c0-7.5-4.9-11.2-10.9-11.2
		C199.4,480.2,194.6,484.7,194.6,491.4z"/>
	<path d="M270.8,504.7l-4.2-9.3h-22.5l-4.1,9.3h-3.1l16.9-37.8h3.2l16.9,37.8H270.8z M265.5,492.8l-10.1-23l-10.1,23H265.5z"/>
	<path d="M277.7,515.9v-37.8h2.6v6.3c2.1-4,6.4-6.7,11.5-6.7c7.2,0.3,12.9,5.1,12.9,13.7c0,9-6,13.8-13.5,13.8
		c-4.5,0-8.7-2.2-11-6.6v17.3H277.7z M302.2,491.4c0-7.5-4.9-11.2-10.9-11.2c-6.2,0-10.8,4.7-10.8,11.2c0,6.5,4.7,11.2,10.8,11.2
		C297.3,502.7,302.2,498.9,302.2,491.4z"/>
	<path d="M313.9,467v22.8l12.6-11.7h3.5v0.1l-13.5,12.5l15,13.9v0.2h-3.3l-14.3-13.1v13.1h-2.6V467H313.9z"/>
	<path d="M333.4,491.4c0-8,6-13.8,13.5-13.8s14.2,4.6,13.2,15h-24c0.5,6.3,5.3,9.9,10.8,9.9c3.5,0,7.6-1.4,9.6-4l1.9,1.5
		c-2.6,3.4-7.2,5.1-11.5,5.1C339.4,505.1,333.4,499.9,333.4,491.4z M357.7,490.3c-0.1-6.6-4.4-10.2-10.8-10.2
		c-5.5,0-10.2,3.7-10.8,10.2H357.7z"/>
	<path d="M370.7,503.1c0,0.3-0.1,0.6-0.2,0.9l-2.2,5.5H366l1.7-4.5c-0.7-0.3-1.3-0.9-1.3-1.9C366.4,500.3,370.7,500.3,370.7,503.1z"
		/>
	<path d="M419.5,504.7h-3.7l-19.9-18.6v18.6H393V467h2.9v17.2l18.3-17.2h3.5v0.3l-19,17.8l20.7,19.5V504.7z"/>
	<path d="M419.3,491.5c0-8.5,6-13.9,13.5-13.9c7.5,0,13.5,5.4,13.5,13.9c0,8.5-6,13.6-13.5,13.6
		C425.4,505.1,419.3,499.9,419.3,491.5z M443.8,491.5c0-6.9-4.9-11.4-11-11.4s-10.9,4.5-10.9,11.4s4.9,11.1,10.9,11.1
		S443.8,498.4,443.8,491.5z"/>
	<path d="M470.8,483c-2.7-2.4-5.3-2.8-8.3-2.8c-4.2-0.1-8.1,1.5-8,4.9c0.1,3.6,4.7,4.3,8.1,4.9c4.7,0.8,11.3,1.6,11,7.8
		c-0.2,5.9-6.3,7.4-10.9,7.4c-4.7,0-9.3-1.8-11.7-5.3l1.9-1.7c2.2,3.2,6.2,4.5,9.8,4.5c3.2,0,8.1-0.9,8.3-5.1
		c0.1-3.8-4.3-4.6-8.7-5.3c-5.2-0.9-10.3-1.8-10.4-7.2c-0.1-5.2,5.2-7.5,10.6-7.4c3.9,0,7.3,1.1,9.9,3.6L470.8,483z"/>
	<path d="M482,467v16.1c2.2-3.8,5.9-5.3,9.6-5.3c7.4,0,11.2,4.8,11.2,11.8v15.3h-2.6v-15.3c0-5.5-2.6-9.2-8.6-9.2
		c-5.6,0-9.5,4.3-9.5,9.9v14.6h-2.6V467H482z"/>
	<path d="M513.1,469.4c0,2.8-4.3,2.8-4.3,0C508.9,466.6,513.1,466.6,513.1,469.4z M509.6,478v26.8h2.6V478H509.6z"/>
	<path d="M538.1,483c-2.7-2.4-5.3-2.8-8.3-2.8c-4.2-0.1-8.1,1.5-8,4.9c0.1,3.6,4.7,4.3,8.1,4.9c4.7,0.8,11.3,1.6,11,7.8
		c-0.2,5.9-6.3,7.4-11,7.4c-4.7,0-9.3-1.8-11.7-5.3l1.9-1.7c2.2,3.2,6.2,4.5,9.8,4.5c3.2,0,8.1-0.9,8.3-5.1c0.1-3.8-4.3-4.6-8.7-5.3
		c-5.2-0.9-10.3-1.8-10.4-7.2c-0.1-5.2,5.2-7.5,10.6-7.4c3.9,0,7.3,1.1,9.9,3.6L538.1,483z"/>
	<path d="M549.3,467v16.1c2.2-3.8,5.9-5.3,9.6-5.3c7.4,0,11.2,4.8,11.2,11.8v15.3h-2.6v-15.3c0-5.5-2.6-9.2-8.6-9.2
		c-5.6,0-9.5,4.3-9.5,9.9v14.6h-2.6V467H549.3z"/>
	<path d="M619.3,504.7v-17.2h-24.1v17.2h-2.9V467h2.9v18h24.1v-18h2.9v37.8H619.3z"/>
	<path d="M651.5,504.7v-4.8c-2,3.7-5.8,5.2-9.5,5.2c-7.1,0-12-4.4-12-11.8V478h2.6v15.3c0,6,3.7,9.3,9.5,9.2
		c5.5-0.1,9.3-4.2,9.3-9.7V478h2.6v26.7H651.5z"/>
	<path d="M700.5,504.7v-16c0-5.1-3.5-8.7-8.5-8.7s-8.6,3.8-8.6,8.9v15.8h-2.6v-15.8c0-5.1-3.5-8.8-8.6-8.8s-8.5,3.7-8.5,8.8v15.8
		h-2.6v-26.6h2.5l0.1,4.4c1.8-3.5,5.2-5,8.7-5c4,0,8.3,1.8,9.9,6.6c1.6-4.4,5.8-6.6,9.9-6.6c6.5,0,11.2,4.6,11.2,11.2v16H700.5z"/>
	<path d="M736.2,478.1c0,8.9,0,17.7,0,26.6h-2.6v-5.7c-2.6,4.2-6.6,6.1-10.9,6.1c-7.4,0-13.5-5.6-13.5-13.8
		c0-8.1,6.1-13.6,13.5-13.6c4.3,0,8.7,2,10.9,6.1v-5.8H736.2z M711.8,491.4c0,6.7,4.9,11.2,10.9,11.2c14.8,0,14.8-22.3,0-22.3
		C716.7,480.3,711.8,484.7,711.8,491.4z"/>
	<path d="M745.9,478.1l0.1,4.7c1.7-3.6,5.4-5,8.8-5c2-0.1,3.9,0.5,5.7,1.6l-1.2,2.2c-1.4-0.9-3-1.2-4.5-1.2c-5,0.1-8.8,4-8.8,8.9
		v15.5h-2.6v-26.6H745.9z"/>
	<path d="M768.1,469.4c0,2.8-4.3,2.8-4.3,0C763.8,466.6,768.1,466.6,768.1,469.4z M764.6,478v26.8h2.6V478H764.6z"/>
</g>
<g>
	<path class="st3" d="M444.8,152.5c1.3-4.9,2-10,2-15.3c0-4.5-0.5-8.9-1.5-13.2C446.5,133.5,446.3,143.2,444.8,152.5z"/>
</g>
<g>
	<g>
		<g>
			<path class="st4" d="M385.6,15.8c-62.8,0-118.5,58.3-118.3,121.5c0.1,28.9,10.7,56.3,28.2,79.2c1.6,2.2,3.3,4.3,5,6.4
				c3.8,4.7,10.8,5,15,0.8v0c3.7-3.7,3.9-9.5,0.7-13.5c-1.7-2.1-3.3-4.2-4.9-6.3c-14.5-18.9-22.7-41.5-22.8-65.4
				c-0.2-52.1,45.3-100.3,97-100.3c55.4,0,97.4,49.8,97.4,105.2c0,26.7-16.2,52-32.4,71.6c-17.5,21.2-37.4,40.6-58.5,58.4
				c-3.7,3.2-9.2,3.1-13,0c-12.4-10.5-24.5-21.6-36.1-33.3c-3.9-4-10.3-3.9-14.3,0l-0.3,0.3c-3.9,3.9-3.9,10.2-0.1,14.2
				c16,16.7,33.2,32.5,50.7,47.3c3.7,3.2,9.2,3.2,13,0c26-21.8,50.7-45.7,72.3-71.9c19.6-23.8,39.9-54.4,39.9-86.8
				C504.3,76.1,452.8,15.8,385.6,15.8z"/>
		</g>
	</g>
</g>
<path class="st0" d="M385.8,68.3c-38,0-68.9,30.8-68.9,68.9c0,15,4.8,28.8,12.9,40.1l-50.3,50.3l-24-24c-4.4-4.4-11.7-4.4-16.1,0
	c-4.4,4.4-4.4,11.7,0,16.1l24,24l-12.2,12.2L234,238.8c-4.4-4.4-11.7-4.4-16.1,0c-4.4,4.4-4.4,11.7,0,16.1L235,272l-7.7,7.7
	c-4.4,4.4-4.4,11.7,0,16.1c4.4,4.4,11.7,4.4,16.1,0L346,193.4c11.3,8,25,12.7,39.8,12.7c38,0,68.9-30.8,68.9-68.9
	S423.8,68.3,385.8,68.3z M385.8,89.4c26.4,0,47.8,21.4,47.8,47.8S412.2,185,385.8,185c-8.4,0-16.2-2.2-23.1-6
	c-7.8-4.3-14.2-10.7-18.6-18.5c-3.9-6.9-6.1-14.9-6.1-23.4C338,110.8,359.4,89.4,385.8,89.4z"/>
<path class="st2" d="M411,147.8l-20.7-18.9c-2.3-2.1-5.8-2.1-8.1,0l-20.7,18.9c-2.4,2.2-6.2,2.1-8.5-0.4v0c-2.2-2.4-2.1-6.2,0.4-8.5
	l28.8-26.3c2.3-2.1,5.8-2.1,8.1,0l28.8,26.3c2.4,2.2,2.6,6,0.4,8.5l0,0C417.3,149.9,413.5,150.1,411,147.8z"/>
<path class="st2" d="M380.1,148.6L380.1,148.6c-2.1,0-3.9-1.8-3.9-3.9v-1.1c0-2.1,1.8-3.9,3.9-3.9h0c2.1,0,3.9,1.8,3.9,3.9v1.1
	C384,146.9,382.3,148.6,380.1,148.6z"/>
<path class="st2" d="M391.9,148.6L391.9,148.6c-2.1,0-3.9-1.8-3.9-3.9v-1.1c0-2.1,1.8-3.9,3.9-3.9h0c2.1,0,3.9,1.8,3.9,3.9v1.1
	C395.8,146.9,394,148.6,391.9,148.6z"/>
<path class="st2" d="M391.9,160.5L391.9,160.5c-2.1,0-3.9-1.8-3.9-3.9v-1.1c0-2.1,1.8-3.9,3.9-3.9h0c2.1,0,3.9,1.8,3.9,3.9v1.1
	C395.8,158.8,394,160.5,391.9,160.5z"/>
<path class="st2" d="M380.1,160.5L380.1,160.5c-2.1,0-3.9-1.8-3.9-3.9v-1.1c0-2.1,1.8-3.9,3.9-3.9h0c2.1,0,3.9,1.8,3.9,3.9v1.1
	C384,158.8,382.3,160.5,380.1,160.5z"/>
</svg>
